<svg xmlns="http://www.w3.org/2000/svg" viewBox="0 0 1280 421"><defs><style>.cls-1{font-size:218.49px;font-family:Exo2-Bold, "Exo 2";font-weight:700;letter-spacing:0.15em;}.cls-2{letter-spacing:0.15em;}.cls-3{letter-spacing:0em;}.cls-4{fill:none;stroke:#000;stroke-miterlimit:10;stroke-width:30px;}</style></defs><g id="Layer_2" data-name="Layer 2"><g id="Layer_2-2" data-name="Layer 2"><text class="cls-1" transform="translate(56.9 280.81) scale(0.95 1)">C<tspan class="cls-2" x="160.81" y="0">R</tspan><tspan class="cls-3" x="333.63" y="0" xml:space="preserve">O  </tspan><tspan x="577.89" y="0">CAFE</tspan></text><rect id="Box" class="cls-4" x="15" y="15" width="1250" height="391"/><g id="Soundwave"><path d="M551.9,216.6h0a3,3,0,0,1-2.25-3.6l7.4-32a3,3,0,0,1,3.6-2.25h0a3,3,0,0,1,2.25,3.6l-7.39,32A3,3,0,0,1,551.9,216.6Z"/><path d="M562,221.64h0a2.89,2.89,0,0,1-2.3-3.39l8.67-37.53a2.87,2.87,0,0,1,3.55-2h0a2.87,2.87,0,0,1,2.29,3.39l-8.66,37.53A2.91,2.91,0,0,1,562,221.64Z"/><path d="M573.73,215.42h0a3,3,0,0,1-2.25-3.59l4.67-20.24a3,3,0,0,1,3.6-2.25h0a3,3,0,0,1,2.25,3.6l-4.68,20.24A3,3,0,0,1,573.73,215.42Z"/><path d="M584.44,213.46h0a3,3,0,0,1-2.25-3.6l2.73-11.81a3,3,0,0,1,3.6-2.24h0a3,3,0,0,1,2.25,3.59L588,211.21A3,3,0,0,1,584.44,213.46Z"/><path d="M544.49,204.23h0a3,3,0,0,1-2.24-3.59L545,188.83a3,3,0,0,1,3.6-2.25h0a3,3,0,0,1,2.25,3.6L548.09,202A2.94,2.94,0,0,1,544.49,204.23Z"/></g></g></g></svg>